# xmcd CD database file
#
# Track frame offsets:
#	150
#	29895
#	63375
#	91910
#	116502
#	139517
#	161145
#	190055
#	207977
#	238650
#	271280
#
# Disc length: 3940 seconds
#
# Revision: 0
# Processed by: cddbd v1.5.2PL0 Copyright (c) Steve Scherf et al.
# Submitted via: CDex 1.51
#
DISCID=9d0f620b
DTITLE=Overproo - 3 Guys Walk Into A Bar
DYEAR=2004
DGENRE=Jazz
TTITLE0=89 Days
TTITLE1=Guaguanco Without Wine
TTITLE2=Come Together
TTITLE3=Fulani Roots
TTITLE4=Lucia's WaWa
TTITLE5=Kotico's Song
TTITLE6=2002
TTITLE7=Danzon Pink Gum
TTITLE8=Hotel Lobby Samba
TTITLE9=R and R
TTITLE10=Killer Whales
EXTD=YEAR: 2004
EXTT0=
EXTT1=
EXTT2=
EXTT3=
EXTT4=
EXTT5=
EXTT6=
EXTT7=
EXTT8=
EXTT9=
EXTT10=
PLAYORDER=
